<?xml version="1.0" encoding="UTF-8"?>
<svg width="24px" height="24px" viewBox="0 0 24 24" version="1.1" xmlns="http://www.w3.org/2000/svg" xmlns:xlink="http://www.w3.org/1999/xlink">
    <title>Elements/Icons/Check/White</title>
    <g id="Elements/Icons/Check/White" stroke="none" stroke-width="1" fill="none" fill-rule="evenodd">
        <rect id="Box" x="0" y="0" width="24" height="24"></rect>
        <path d="M17.3870177,8.00427439 C17.2635186,8.02056056 17.1493255,8.07866202 17.0634547,8.16890321 C16.8496934,8.38266819 15.1958722,10.081889 13.5156155,11.8075635 C11.9937898,13.3705292 10.7027805,14.6981681 10.3140454,15.0942909 L6.87973699,12.4773955 C6.72478199,12.356802 6.51693686,12.3288828 6.33565103,12.4043104 C6.15436521,12.4797379 6.02766683,12.6468505 6.00398676,12.8417687 C5.98030669,13.0366869 6.06330603,13.2292751 6.22125803,13.3459157 L10.0358948,16.2523056 C10.2535216,16.4165988 10.5590779,16.3947695 10.7511392,16.2012076 C10.9649005,15.9874608 12.6187217,14.2938892 14.2989784,12.5682202 C15.9792351,10.8425458 17.6859272,9.08477933 17.8354646,8.93522741 C18.0031147,8.77175355 18.0476056,8.51946093 17.9459852,8.30850221 C17.8443649,8.09754349 17.6193486,7.97507445 17.3870177,8.00427439 L17.3870177,8.00427439 Z" id="Path" stroke="#FFFFFF"></path>
        <path d="M17.3870177,8.00427439 C17.2635186,8.02056056 17.1493255,8.07866202 17.0634547,8.16890321 C16.8496934,8.38266819 15.1958722,10.081889 13.5156155,11.8075635 C11.9937898,13.3705292 10.7027805,14.6981681 10.3140454,15.0942909 L6.87973699,12.4773955 C6.72478199,12.356802 6.51693686,12.3288828 6.33565103,12.4043104 C6.15436521,12.4797379 6.02766683,12.6468505 6.00398676,12.8417687 C5.98030669,13.0366869 6.06330603,13.2292751 6.22125803,13.3459157 L10.0358948,16.2523056 C10.2535216,16.4165988 10.5590779,16.3947695 10.7511392,16.2012076 C10.9649005,15.9874608 12.6187217,14.2938892 14.2989784,12.5682202 C15.9792351,10.8425458 17.6859272,9.08477933 17.8354646,8.93522741 C18.0031147,8.77175355 18.0476056,8.51946093 17.9459852,8.30850221 C17.8443649,8.09754349 17.6193486,7.97507445 17.3870177,8.00427439 L17.3870177,8.00427439 Z" id="Path" fill="#FFFFFF"></path>
    </g>
</svg>